<svg xmlns="http://www.w3.org/2000/svg" viewBox="0 0 24 24" fill="none" stroke="currentColor" stroke-width="2" stroke-linecap="round" stroke-linejoin="round">
  <path d="M4.6 13.1c-.5-.2-.9-.6-1-1.1-.1-.5 0-1 .3-1.4l5-6.5c.4-.5 1-.7 1.6-.6l7 1.5c.6.1 1.1.5 1.3 1.1.2.6.1 1.2-.3 1.7l-2.5 2.8"/>
  <path d="M19.4 10.9c.5.2.9.6 1 1.1.1.5 0 1-.3 1.4l-5 6.5c-.4.5-1 .7-1.6.6l-7-1.5c-.6-.1-1.1-.5-1.3-1.1-.2-.6-.1-1.2.3-1.7l2.5-2.8"/>
  <path d="M12 12c2.2 0 4 1.8 4 4"/>
  <path d="M12 12c-2.2 0-4-1.8-4-4"/>
</svg>
